<svg width="1034" height="400" viewBox="0 0 1034 400" fill="none" xmlns="http://www.w3.org/2000/svg">
<path d="M208.5 126.5C149.086 91.5325 113.5 137.333 102 162.999C128.5 158 152 160 192 189.499C253 234.486 264.667 313.999 265 351.999C271.5 330.499 304.5 183 208.5 126.5Z" fill="url(#paint0_linear)"/>
<path d="M317.898 92.0216C283.368 52.9374 247.052 77.6231 232.771 93.4305C252.996 96.0217 269.425 102.956 291.277 133.562C324.6 180.237 314.364 240.261 305.703 267.721C315.412 253.748 373.691 155.173 317.898 92.0216Z" fill="url(#paint1_linear)"/>
<path d="M388.832 78.3021C374.371 51.3578 350.329 60.5713 340.055 67.6761C351.251 71.8708 359.697 78.0344 368.06 98.4376C380.813 129.552 366.911 162.437 358.28 176.948C365.698 170.276 412.197 121.839 388.832 78.3021Z" fill="url(#paint2_linear)"/>
<path d="M532.046 211.974V252.541H517.083V292H472.082V198.119C472.082 180.458 477.513 165.864 488.375 154.337C499.311 142.736 513.055 136.935 529.607 136.935C547.859 136.935 563.118 144.805 575.384 160.544L538.475 187.478C536.406 181.714 532.748 178.833 527.501 178.833C520.556 178.833 517.083 183.636 517.083 193.242V211.974H532.046Z" fill="url(#paint3_linear)"/>
<path d="M639.339 216.075V255.977H626.371V292H581.37V195.791C581.37 177.17 586.431 162.724 596.555 152.453C606.752 142.108 621.05 136.935 639.45 136.935C657.184 136.935 670.3 141.627 678.798 151.012C687.296 160.322 691.544 174.731 691.544 194.239V292H646.543V197.232C646.543 191.32 645.841 187.219 644.438 184.929C643.034 182.638 640.521 181.493 636.9 181.493C629.881 181.493 626.371 186.739 626.371 197.232V216.075H639.339Z" fill="url(#paint4_linear)"/>
<path d="M715.708 292V193.796C715.708 176.579 720.843 162.798 731.114 152.453C741.459 142.108 755.203 136.935 772.347 136.935C789.416 136.935 802.458 141.96 811.473 152.009C820.562 162.059 825.106 176.505 825.106 195.348V292H780.105V195.348C780.105 186.111 776.817 181.493 770.241 181.493C763.886 181.493 760.708 186.111 760.708 195.348V292H715.708Z" fill="url(#paint5_linear)"/>
<path d="M916.549 207.208H959.444C968.681 218.661 973.299 230.743 973.299 243.452C973.299 258.231 967.868 270.645 957.006 280.694C946.217 290.744 932.917 295.769 917.104 295.769C896.561 295.769 879.122 287.973 864.787 272.381C850.452 256.79 843.284 237.799 843.284 215.41C843.284 192.946 850.563 174.251 865.12 159.325C879.75 144.398 898.002 136.935 919.875 136.935C927.338 136.935 935.614 138.45 944.703 141.479V186.48C937.609 183.155 931.143 181.493 925.306 181.493C914.739 181.493 906.093 184.781 899.369 191.357C892.719 197.934 889.394 206.469 889.394 216.961C889.394 227.676 892.497 236.174 898.704 242.455C904.911 248.736 913.298 251.876 923.865 251.876C930.589 251.876 933.951 249.918 933.951 246.001C933.951 243.046 931.734 241.568 927.301 241.568H916.549V207.208Z" fill="url(#paint6_linear)"/>
<defs>
<linearGradient id="paint0_linear" x1="354" y1="19.5" x2="181" y2="325" gradientUnits="userSpaceOnUse">
<stop stop-color="#FD5370"/>
<stop offset="1" stop-color="#FFA085"/>
</linearGradient>
<linearGradient id="paint1_linear" x1="447.581" y1="48.9258" x2="251.295" y2="228.267" gradientUnits="userSpaceOnUse">
<stop stop-color="#FD5370"/>
<stop offset="1" stop-color="#FFA085"/>
</linearGradient>
<linearGradient id="paint2_linear" x1="468.637" y1="71.1174" x2="332.523" y2="147.124" gradientUnits="userSpaceOnUse">
<stop stop-color="#FD5370"/>
<stop offset="1" stop-color="#FFA085"/>
</linearGradient>
<linearGradient id="paint3_linear" x1="719" y1="77" x2="855.705" y2="268.318" gradientUnits="userSpaceOnUse">
<stop stop-color="#FD5370"/>
<stop offset="1" stop-color="#FFA085"/>
</linearGradient>
<linearGradient id="paint4_linear" x1="719" y1="77" x2="855.705" y2="268.318" gradientUnits="userSpaceOnUse">
<stop stop-color="#FD5370"/>
<stop offset="1" stop-color="#FFA085"/>
</linearGradient>
<linearGradient id="paint5_linear" x1="719" y1="77" x2="855.705" y2="268.318" gradientUnits="userSpaceOnUse">
<stop stop-color="#FD5370"/>
<stop offset="1" stop-color="#FFA085"/>
</linearGradient>
<linearGradient id="paint6_linear" x1="719" y1="77" x2="855.705" y2="268.318" gradientUnits="userSpaceOnUse">
<stop stop-color="#FD5370"/>
<stop offset="1" stop-color="#FFA085"/>
</linearGradient>
</defs>
</svg>
